STARTFONT 2.1
FONT -FontForge-Consolas-Book-R-Normal--36-350-75-75-P-190-ISO10646-1
SIZE 35 75 75
FONTBOUNDINGBOX 18 25 1 0
COMMENT "Generated by fontforge, http://fontforge.sourceforge.net"
COMMENT "(c) 2018 Microsoft Corporation. All rights reserved."
STARTPROPERTIES 37
FOUNDRY "FontForge"
FAMILY_NAME "Consolas"
WEIGHT_NAME "Book"
SLANT "R"
SETWIDTH_NAME "Normal"
ADD_STYLE_NAME ""
PIXEL_SIZE 36
POINT_SIZE 350
RESOLUTION_X 75
RESOLUTION_Y 75
SPACING "P"
AVERAGE_WIDTH 190
CHARSET_REGISTRY "ISO10646"
CHARSET_ENCODING "1"
FONTNAME_REGISTRY ""
CHARSET_COLLECTIONS "ISO10646-1"
FONT_NAME "Consolas"
FACE_NAME "Consolas"
COPYRIGHT "(c) 2018 Microsoft Corporation. All rights reserved."
FONT_VERSION "7.00"
FONT_ASCENT 27
FONT_DESCENT 9
UNDERLINE_POSITION -6
UNDERLINE_THICKNESS 3
RAW_ASCENT 742
RAW_DESCENT 257
NORM_SPACE 20
RELATIVE_WEIGHT 40
RELATIVE_SETWIDTH 50
SUPERSCRIPT_X 0
SUPERSCRIPT_Y 17
SUPERSCRIPT_SIZE 23
SUBSCRIPT_X 0
SUBSCRIPT_Y 5
SUBSCRIPT_SIZE 23
FIGURE_WIDTH 20
AVG_UPPERCASE_WIDTH 200
ENDPROPERTIES
CHARS 21
STARTCHAR uni0000
ENCODING 0
SWIDTH 549 0
DWIDTH 20 0
BBX 1 1 0 0
BITMAP
00
ENDCHAR
STARTCHAR uni000D
ENCODING 13
SWIDTH 0 0
DWIDTH 0 0
BBX 1 1 0 0
BITMAP
00
ENDCHAR
STARTCHAR space
ENCODING 32
SWIDTH 549 0
DWIDTH 20 0
BBX 1 1 0 0
BITMAP
00
ENDCHAR
STARTCHAR period
ENCODING 46
SWIDTH 549 0
DWIDTH 20 0
BBX 6 6 7 0
BITMAP
78
FC
FC
FC
FC
78
ENDCHAR
STARTCHAR zero
ENCODING 48
SWIDTH 549 0
DWIDTH 20 0
BBX 17 23 2 0
BITMAP
03F000
0FF800
1FFC00
3C1E00
780F00
700700
700700
E01F80
E03F80
E0FB80
E1F380
E7C380
EF8380
FE0380
FC0380
F00780
700700
700700
780F00
3C1E00
3FFC00
1FF800
07E000
ENDCHAR
STARTCHAR one
ENCODING 49
SWIDTH 549 0
DWIDTH 20 0
BBX 16 23 2 0
BITMAP
03C0
0FC0
7FC0
FDC0
71C0
41C0
01C0
01C0
01C0
01C0
01C0
01C0
01C0
01C0
01C0
01C0
01C0
01C0
01C0
01C0
7FFF
7FFF
7FFF
ENDCHAR
STARTCHAR two
ENCODING 50
SWIDTH 549 0
DWIDTH 20 0
BBX 15 23 3 0
BITMAP
0FC0
3FF0
7FF8
F078
403C
001C
001C
001C
001C
0038
0038
0070
00F0
01E0
03C0
0780
0F00
1E00
3C00
7800
FFFE
FFFE
FFFE
ENDCHAR
STARTCHAR three
ENCODING 51
SWIDTH 549 0
DWIDTH 20 0
BBX 14 23 3 0
BITMAP
1F80
7FE0
7FF0
60F8
0038
0038
0038
0038
0070
00F0
1FC0
1FE0
1FF0
0078
003C
001C
001C
001C
003C
0078
FFF0
FFE0
FF00
ENDCHAR
STARTCHAR four
ENCODING 52
SWIDTH 549 0
DWIDTH 20 0
BBX 18 23 1 0
BITMAP
007C00
007C00
00FC00
01FC00
01DC00
039C00
039C00
071C00
0E1C00
0E1C00
1C1C00
381C00
381C00
701C00
E01C00
FFFFC0
FFFFC0
FFFFC0
001C00
001C00
001C00
001C00
001C00
ENDCHAR
STARTCHAR five
ENCODING 53
SWIDTH 549 0
DWIDTH 20 0
BBX 14 23 3 0
BITMAP
FFF8
FFF8
FFF8
E000
E000
E000
E000
E000
E000
FF80
FFE0
FFF8
00F8
003C
001C
001C
001C
001C
0038
00F8
FFF0
FFC0
FF00
ENDCHAR
STARTCHAR six
ENCODING 54
SWIDTH 549 0
DWIDTH 20 0
BBX 16 23 2 0
BITMAP
00FC
07FC
0FFC
1F00
3C00
7800
7000
6000
E000
E7F0
FFFC
FFFE
F81E
E00F
E007
E007
E007
7007
700E
7C1E
3FFC
1FF8
07E0
ENDCHAR
STARTCHAR seven
ENCODING 55
SWIDTH 549 0
DWIDTH 20 0
BBX 16 23 2 0
BITMAP
FFFF
FFFF
FFFF
0007
000E
000E
001C
001C
0038
0038
0070
00F0
00E0
01E0
01C0
03C0
0380
0780
0700
0F00
0E00
1E00
1C00
ENDCHAR
STARTCHAR eight
ENCODING 56
SWIDTH 549 0
DWIDTH 20 0
BBX 15 23 2 0
BITMAP
0FE0
3FF8
7FFC
783E
E00E
E00E
E00E
F01E
783C
7E78
1FF0
0FE0
1FF0
3CFC
783C
F01E
E00E
E00E
E00E
F83E
7FFC
3FF8
0FE0
ENDCHAR
STARTCHAR nine
ENCODING 57
SWIDTH 549 0
DWIDTH 20 0
BBX 16 23 2 0
BITMAP
07E0
1FF8
3FFC
783E
700E
E00E
E007
E007
E007
F007
781F
7FFF
3FFF
0FF7
0007
000E
000E
001E
003C
00F8
7FF0
7FE0
7F00
ENDCHAR
STARTCHAR less
ENCODING 60
SWIDTH 549 0
DWIDTH 20 0
BBX 14 20 2 0
BITMAP
0018
003C
0078
00F0
01E0
07C0
0F00
1E00
3C00
7800
F800
3C00
1E00
0F00
07C0
01E0
00F0
0078
003C
0018
ENDCHAR
STARTCHAR equal
ENCODING 61
SWIDTH 549 0
DWIDTH 20 0
BBX 15 10 2 4
BITMAP
FFFE
FFFE
FFFE
0000
0000
0000
0000
FFFE
FFFE
FFFE
ENDCHAR
STARTCHAR greater
ENCODING 62
SWIDTH 549 0
DWIDTH 20 0
BBX 14 20 4 0
BITMAP
6000
F000
7800
3C00
1E00
0F80
03C0
01E0
00F0
0078
007C
00F0
01E0
03C0
0F80
1E00
3C00
7800
F000
6000
ENDCHAR
STARTCHAR C
ENCODING 67
SWIDTH 549 0
DWIDTH 20 0
BBX 16 23 2 0
BITMAP
01FC
07FF
1FFF
1F03
3C00
7800
7000
F000
E000
E000
E000
E000
E000
E000
E000
F000
7000
7800
7C00
3E03
1FFF
0FFF
03FC
ENDCHAR
STARTCHAR F
ENCODING 70
SWIDTH 549 0
DWIDTH 20 0
BBX 13 23 4 0
BITMAP
FFF8
FFF8
FFF8
E000
E000
E000
E000
E000
E000
E000
FFF0
FFF0
FFF0
E000
E000
E000
E000
E000
E000
E000
E000
E000
E000
ENDCHAR
STARTCHAR space.dup1
ENCODING 160
SWIDTH 549 0
DWIDTH 20 0
BBX 1 1 0 0
BITMAP
00
ENDCHAR
STARTCHAR degree
ENCODING 176
SWIDTH 549 0
DWIDTH 20 0
BBX 13 12 4 13
BITMAP
0FC0
3FE0
7FF0
7078
E038
E038
E038
E038
F070
7FF0
3FE0
1F80
ENDCHAR
ENDFONT
